<svg width="920" height="390" viewBox="0 0 920 390" fill="none" xmlns="http://www.w3.org/2000/svg">
<path d="M375.144 73.3227C378.879 81.9037 380.68 91.0189 380.68 100.835C380.68 110.652 378.879 119.767 375.144 128.348C371.242 137.096 366.206 144.608 359.803 151.219C353.4 157.63 345.73 162.839 336.959 166.578C328.388 170.318 319.151 172.288 309.346 172.288H261.924L285.635 148.348H309.346C315.949 148.348 322.186 147.113 327.888 144.775C333.591 142.271 338.76 138.866 343.029 134.391C347.297 129.917 350.699 124.942 353.2 119.233C355.701 113.323 356.935 107.246 356.935 100.835C356.935 94.4246 355.701 88.3478 353.2 82.4379C350.699 76.7284 347.297 71.7534 342.862 67.2793C338.593 63.0055 333.424 59.4328 327.721 56.9286C322.019 54.6248 315.783 53.356 309.346 53.356H285.635L261.924 29.416H309.346C319.151 29.416 328.222 31.386 336.959 35.1256C345.53 38.8651 353.167 44.0738 359.603 50.4845C366.206 57.0956 371.209 64.5747 375.11 73.3561H375.177L375.144 73.3227Z" fill="white"/>
<path d="M204.763 29.416C224.573 29.416 241.147 36.5613 255.054 50.4845C269.127 64.4078 276.264 81.2025 276.264 100.835C276.264 120.468 269.127 137.43 255.054 151.186C241.147 165.109 224.573 172.255 204.763 172.255C184.954 172.255 168.379 165.109 154.473 151.186C140.566 137.263 133.43 120.668 133.43 100.835C133.43 81.0022 140.566 64.4078 154.473 50.4845C168.179 36.5613 184.954 29.416 204.763 29.416ZM204.763 53.356C191.724 53.356 180.519 57.8302 171.047 67.2793C161.776 76.5614 157.308 87.8136 157.308 100.835C157.308 113.857 161.776 125.31 171.047 134.592C180.318 143.874 191.724 148.348 204.763 148.348C217.803 148.348 229.008 143.874 238.279 134.592C247.717 125.143 252.186 113.89 252.186 100.835C252.186 87.7802 247.55 76.5614 238.279 67.2793C229.008 57.9971 217.769 53.356 204.763 53.356Z" fill="white"/>
<path d="M94.7441 171.988C108.717 169.216 121.557 162.371 131.661 152.288L113.72 134.358C105.116 142.505 93.4768 147.513 80.7041 147.513C54.225 147.513 32.7482 126.077 32.7482 99.6333C32.7482 73.1891 54.225 51.7533 80.7041 51.7533C94.4106 51.7533 106.75 57.4963 115.521 66.6783L131.695 50.5513C121.623 40.4678 108.751 33.6564 94.7774 30.8517C80.8042 28.0804 66.2974 29.5162 53.1245 34.9252C39.9516 40.3676 28.713 49.583 20.7759 61.4362C12.8388 73.2893 8.60352 87.2126 8.60352 101.436C8.60352 115.66 12.8388 129.583 20.7426 141.403C28.6796 153.223 39.9516 162.438 53.0911 167.914C66.264 173.356 80.7708 174.792 94.7441 171.988Z" fill="white"/>
<path d="M447.645 0H912.23V201.937H570.169L447.645 0Z" fill="#D32027"/>
<path d="M874.878 73.3227C878.613 81.9037 880.414 91.0189 880.414 100.835C880.414 110.652 878.613 119.767 874.878 128.348C870.976 137.096 865.94 144.608 859.537 151.219C853.134 157.63 845.464 162.839 836.727 166.578C828.156 170.318 818.918 172.288 809.114 172.288H761.691L785.403 148.348H809.114C815.717 148.348 821.953 147.113 827.656 144.775C833.358 142.271 838.528 138.866 842.796 134.391C847.065 129.917 850.467 124.942 852.968 119.233C855.469 113.323 856.703 107.246 856.703 100.835C856.703 94.4246 855.469 88.3478 852.968 82.4379C850.467 76.7284 847.065 71.7534 842.63 67.2793C838.361 63.0055 833.192 59.4328 827.489 56.9286C821.786 54.6248 815.55 53.356 809.114 53.356H785.403L761.691 29.416H809.114C818.918 29.416 827.989 31.386 836.727 35.1256C845.297 38.8651 852.934 44.0738 859.371 50.4845C865.974 57.0956 870.976 64.5747 874.878 73.3561H874.945L874.878 73.3227Z" fill="white"/>
<path d="M649.006 29.5825L672.717 53.4891H744.017V29.5825H649.006ZM649.006 89.2155V112.955H744.017V89.2155H649.006Z" fill="white"/>
<path d="M649.006 172.455H744.017V148.548H672.717L649.006 172.455Z" fill="white"/>
<path d="M625.929 104.074C631.632 96.0605 634.3 87.1123 634.3 77.0955C634.3 64.0404 629.664 52.9886 620.393 43.5395C611.122 34.2573 599.883 29.6162 586.877 29.6162H524.314L536.62 50.8517L538.054 53.5228H586.911C593.314 53.5228 598.85 55.8267 603.485 60.4678C608.287 65.1088 610.622 70.6514 610.622 77.0621C610.622 83.4729 608.321 89.3827 603.485 94.0238C598.85 98.6649 593.314 100.969 586.911 100.969L565.701 100.802L607.053 172.388H634.333L605.086 121.136C613.456 117.73 620.426 112.021 625.929 104.007V104.074Z" fill="white"/>
<path d="M399.422 29.5825L423.133 53.5225H494.433V29.5825H399.422ZM399.422 89.2155V112.955H494.433V89.2155H399.422Z" fill="white"/>
<path d="M399.422 172.455H494.433V148.515H423.133L399.422 172.455Z" fill="white"/>
<path d="M399.422 172.455H494.433V148.515H423.133L399.422 172.455Z" fill="white"/>
<path fill-rule="evenodd" clip-rule="evenodd" d="M423.133 53.5225L399.422 29.5825H465.586L480.093 53.5225H423.1H423.133ZM399.422 112.989V89.2489H494.433V112.989H399.422Z" fill="white"/>
<path d="M347.513 372.265L355 390H340.252L332.743 372.265M311.115 321.019H325.863L343.512 362.768H328.741L318.444 338.463M308.484 362.129L296.748 390H282L293.758 362.129" fill="white"/>
<path d="M465.874 341.861V390H452.126V341.861M452.126 332.923H431V321H487V332.923H465.874" fill="white"/>
<path d="M553.262 356.961C556.466 353.071 557.977 348.774 557.977 343.935C557.977 337.626 555.383 332.284 550.148 327.735C544.914 323.245 538.574 321 531.264 321H496L502.927 331.258L503.716 332.555H531.264C534.874 332.555 538.01 333.677 540.605 335.923C543.312 338.168 544.621 340.839 544.621 343.935C544.621 347.032 543.312 349.877 540.605 352.123C538.01 354.368 534.874 355.49 531.264 355.49L519.306 355.394L542.635 390H558L541.53 365.226C546.245 363.581 550.171 360.832 553.285 356.942L553.262 356.961Z" fill="white"/>
<path d="M629.52 372.265L637 390H622.265L614.763 372.265M610.72 362.749L600.433 338.444L578.735 389.981H564L593.11 321H607.845L625.477 362.749" fill="white"/>
<path d="M399.717 349.486C406.148 349.486 411.661 351.468 416.188 355.451C420.714 359.435 423 364.215 423 369.792C423 375.368 420.737 380.148 416.188 384.073C411.661 387.999 406.148 390 399.717 390H367.022V378.069H399.717C402.361 378.069 404.625 377.273 406.485 375.66C408.345 374.047 409.263 372.104 409.263 369.792C409.263 367.479 408.345 365.536 406.485 363.923C404.625 362.311 402.384 361.514 399.717 361.514H390.283C383.852 361.514 378.339 359.532 373.812 355.549C369.286 351.585 367 346.785 367 341.208C367 335.632 369.263 330.852 373.812 326.927C378.339 323.001 383.852 321 390.283 321H418.339V332.931H390.283C387.706 332.931 385.465 333.747 383.583 335.398C381.7 337.05 380.737 338.993 380.737 341.267C380.737 343.54 381.678 345.483 383.583 347.077C385.465 348.689 387.706 349.486 390.283 349.486H399.717Z" fill="white"/>
<path d="M354.977 372H314L318.278 363H349.486L355 372H354.977Z" fill="white"/>
<path d="M458.949 207.28L449.745 238.265L0.0332031 245.811L449.745 256.696L458.949 286.011L468.587 256.696L919.966 245.811L468.587 238.265L458.949 207.28Z" fill="#D30D0D"/>
</svg>
